<svg width="16" height="16" viewBox="0 0 16 16"  xmlns="http://www.w3.org/2000/svg">
<g id="icon" clip-path="url(#clip0_940_386)">
<path id="Vector" d="M7.53125 2.76908C8.38988 2.76908 9.08815 3.48815 9.08815 4.37234C9.08815 5.25387 8.38988 5.97295 7.53125 5.97295C6.67262 5.97295 5.97434 5.25387 5.97434 4.37234C5.97434 3.48815 6.67262 2.76908 7.53125 2.76908ZM7.53125 8.24202C9.6054 8.24202 11.2917 6.5056 11.2917 4.37234C11.2917 2.23643 9.6054 0.5 7.53125 0.5C5.45709 0.5 3.77347 2.23643 3.77347 4.37234C3.77347 6.5056 5.45709 8.24202 7.53125 8.24202ZM9.05195 11.4006C9.81747 11.2196 10.5545 10.9079 11.2347 10.4685C11.7493 10.1356 11.9046 9.43515 11.5812 8.90517C11.2554 8.37252 10.5778 8.21273 10.0605 8.5483C8.52177 9.54434 6.54072 9.54434 4.99933 8.5483C4.48468 8.21273 3.8045 8.37252 3.48123 8.90517C3.15795 9.43515 3.31312 10.1356 3.82778 10.4685C4.50795 10.9079 5.24502 11.2196 6.01055 11.4006L3.90795 13.5631C3.47864 14.0052 3.47864 14.7243 3.90795 15.1664C4.1252 15.3875 4.40451 15.4993 4.6864 15.4993C4.9683 15.4993 5.2502 15.3875 5.46744 15.1664L7.53125 13.0411L9.59764 15.1664C10.027 15.6112 10.7227 15.6112 11.1546 15.1664C11.5839 14.7243 11.5839 14.0052 11.1546 13.5631L9.05195 11.4006Z" />
</g>
<defs>
<clipPath id="clip0_940_386">
<rect width="15" height="15" fill="white" transform="translate(0.5 0.5)"/>
</clipPath>
</defs>
</svg>
