<svg width="16" height="16" viewBox="0 0 16 16"  xmlns="http://www.w3.org/2000/svg">
<g id="icon" clip-path="url(#clip0_940_790)">
<path id="Vector" d="M9.2766 1.4375C8.85572 1.4375 8.46077 1.66626 8.20745 1.99615C7.95412 2.32603 7.8145 2.72817 7.71277 3.15197C7.5512 3.83342 7.50133 4.58952 7.48936 5.27097C6.30651 5.35526 5.23536 5.73089 4.34573 6.31122C3.98469 5.98614 3.54985 5.80555 3.13296 5.81036C2.65822 5.81518 2.20742 6.0343 1.87231 6.48459C1.23202 7.34423 1.30582 8.75048 2.04785 9.58604C2.00197 9.8437 1.96806 10.1085 1.96806 10.3758C1.96806 13.2076 4.66887 15.5 8 15.5C11.3311 15.5 14.032 13.2052 14.032 10.3758C14.032 10.1085 13.998 9.8437 13.9522 9.58604C14.6942 8.75048 14.768 7.34423 14.1277 6.48459C13.7925 6.0343 13.3418 5.81518 12.867 5.81036C12.4501 5.80555 12.0153 5.98614 11.6543 6.31122C10.7686 5.7333 9.70347 5.35767 8.52659 5.27097C8.54256 4.64249 8.58445 3.98994 8.70213 3.49872C8.77593 3.19049 8.8637 2.96655 8.95745 2.84375C9.0512 2.72095 9.11902 2.67038 9.2766 2.67038C9.61769 2.67038 9.66158 2.78836 9.86703 3.07492C9.97072 3.21939 10.0904 3.39999 10.282 3.57577C10.4734 3.75155 10.7566 3.90326 11.0638 3.90326V2.67038C10.9781 2.67038 10.9621 2.66797 10.9043 2.61258C10.8464 2.5572 10.7667 2.42958 10.6489 2.26584C10.4136 1.93595 9.95675 1.4375 9.2766 1.4375ZM12.5957 1.55308C11.8018 1.55308 11.1596 2.32844 11.1596 3.28681C11.1596 4.24518 11.8018 5.02055 12.5957 5.02055C13.3897 5.02055 14.032 4.24518 14.032 3.28681C14.032 2.32844 13.3897 1.55308 12.5957 1.55308ZM12.5957 2.16952C13.1064 2.16952 13.5213 2.67038 13.5213 3.28681C13.5213 3.90326 13.1064 4.40411 12.5957 4.40411C12.0852 4.40411 11.6702 3.90326 11.6702 3.28681C11.6702 2.67038 12.0852 2.16952 12.5957 2.16952ZM8 6.23416C10.8265 6.23416 13.2181 8.13404 13.2181 10.3758C13.2181 12.6201 10.8265 14.5176 8 14.5176C5.17352 14.5176 2.78189 12.6201 2.78189 10.3758C2.78189 8.13404 5.17352 6.23416 8 6.23416ZM3.14892 6.79281C3.29054 6.79522 3.43814 6.83374 3.57977 6.90839C3.06714 7.37794 2.66022 7.91733 2.38296 8.52654C2.19147 8.04976 2.24333 7.45499 2.4787 7.13955C2.65024 6.90839 2.88762 6.7904 3.14892 6.79281ZM12.8511 6.79281C13.1124 6.7904 13.3498 6.90839 13.5213 7.13955C13.7567 7.45499 13.8086 8.04976 13.617 8.52654C13.3398 7.91733 12.9328 7.37794 12.4202 6.90839C12.5619 6.83374 12.7094 6.79522 12.8511 6.79281ZM5.95744 8.3339C5.44679 8.3339 5.0319 8.83476 5.0319 9.4512C5.0319 10.0677 5.44679 10.5685 5.95744 10.5685C6.46808 10.5685 6.88298 10.0677 6.88298 9.4512C6.88298 8.83476 6.46808 8.3339 5.95744 8.3339ZM10.0425 8.3339C9.53192 8.3339 9.11702 8.83476 9.11702 9.4512C9.11702 10.0677 9.53192 10.5685 10.0425 10.5685C10.5532 10.5685 10.9681 10.0677 10.9681 9.4512C10.9681 8.83476 10.5532 8.3339 10.0425 8.3339ZM5.46276 12.1288C5.78789 12.9403 6.79321 13.7277 8 13.7277C9.20679 13.7277 10.2281 12.9403 10.5532 12.1288C9.96275 12.5888 9.03125 12.8994 8 12.8994C6.96875 12.8994 6.05319 12.5888 5.46276 12.1288Z" />
</g>
<defs>
<clipPath id="clip0_940_790">
<rect width="15" height="15" fill="white" transform="translate(0.5 0.5)"/>
</clipPath>
</defs>
</svg>
