<svg width="16" height="16" viewBox="0 0 16 16" xmlns="http://www.w3.org/2000/svg">
<g id="icon" clip-path="url(#clip0_940_674)">
<path id="Vector" d="M15.3663 10.8382C15.326 10.7716 15.0766 10.2374 13.8765 9.13935C12.6202 7.98953 12.7889 8.17624 14.3022 6.18807C15.2238 4.97724 15.5922 4.2378 15.4769 3.92169C15.3672 3.62036 14.6893 3.69985 14.6893 3.69985L12.4355 3.7128C12.4355 3.7128 12.2685 3.69061 12.1438 3.76363C12.0229 3.83573 11.9451 4.0021 11.9451 4.0021C11.9451 4.0021 11.5879 4.93934 11.1117 5.73609C10.1075 7.41739 9.70527 7.50612 9.54118 7.40168C9.15959 7.15858 9.25523 6.42377 9.25523 5.90246C9.25523 4.27292 9.50556 3.59356 8.76675 3.41795C8.52111 3.35972 8.3411 3.3209 7.71387 3.31443C6.90942 3.3061 6.22782 3.31719 5.84247 3.50298C5.58558 3.62684 5.38776 3.90321 5.50871 3.91892C5.65778 3.93833 5.9953 4.00857 6.17438 4.24889C6.40596 4.55853 6.39752 5.25545 6.39752 5.25545C6.39752 5.25545 6.53066 7.17338 6.08718 7.41184C5.78247 7.57544 5.36525 7.24177 4.46987 5.71575C4.01141 4.93472 3.6645 4.0705 3.6645 4.0705C3.6645 4.0705 3.59794 3.90968 3.47887 3.82372C3.33448 3.71927 3.13197 3.68599 3.13197 3.68599L0.988683 3.69894C0.988683 3.69894 0.667096 3.70818 0.548963 3.8459C0.443955 3.96883 0.540525 4.22209 0.540525 4.22209C0.540525 4.22209 2.21877 8.09213 4.11829 10.0433C5.86122 11.8318 7.8395 11.7145 7.8395 11.7145H8.73582C8.73582 11.7145 9.00677 11.6848 9.14459 11.5379C9.2721 11.4029 9.26742 11.1497 9.26742 11.1497C9.26742 11.1497 9.2496 9.96387 9.80839 9.78914C10.3587 9.61721 11.0657 10.9353 11.8148 11.4427C12.3811 11.8263 12.8114 11.7422 12.8114 11.7422L14.815 11.7145C14.815 11.7145 15.8632 11.6507 15.3663 10.8382Z" />
</g>
<defs>
<clipPath id="clip0_940_674">
<rect width="15" height="15" fill="white" transform="translate(0.5 0.5)"/>
</clipPath>
</defs>
</svg>
